# xmcd CD database file
#
# Track frame offsets:
#	150
#	23685
#	42673
#	66162
#	88090
#	116691
#	121305
#	144611
#	156019
#	172643
#	190806
#	214989
#
# Disc length: 3062 seconds
#
# Revision: 0
# Processed by: cddbd v1.5.2PL0 Copyright (c) Steve Scherf et al.
# Submitted via: CDex 1.70beta2
#
DISCID=a50bf40c
DTITLE=Heidi Skjerve - Morning news of the Woods
DYEAR=1900
DGENRE=Jazz
TTITLE0=My heart os heavy
TTITLE1=The house by the edge of the woods
TTITLE2=Remember me
TTITLE3=Snow
TTITLE4=Come what may
TTITLE5=Morning hour
TTITLE6=Work
TTITLE7=Uphill
TTITLE8=The Parting
TTITLE9=Is the moon tired?
TTITLE10=White paper
TTITLE11=Vugge
EXTD=
EXTT0=
EXTT1=
EXTT2=
EXTT3=
EXTT4=
EXTT5=
EXTT6=
EXTT7=
EXTT8=
EXTT9=
EXTT10=
EXTT11=
PLAYORDER=
